<?xml version="1.0" standalone="no"?>
<!DOCTYPE svg PUBLIC "-//W3C//DTD SVG 20010904//EN"
 "http://www.w3.org/TR/2001/REC-SVG-20010904/DTD/svg10.dtd">
<svg version="1.0" xmlns="http://www.w3.org/2000/svg"
 width="1200.000000pt" height="1200.000000pt" viewBox="0 0 1200.000000 1200.000000"
 preserveAspectRatio="xMidYMid meet">

<g transform="translate(0.000000,1200.000000) scale(0.100000,-0.100000)"
fill="#000000" stroke="none">
<path d="M5863 11869 c-97 -41 -154 -93 -198 -181 -30 -60 -35 -80 -34 -137 0
-36 4 -87 8 -112 4 -25 5 -51 3 -57 -2 -8 -29 -12 -77 -12 l-73 0 5 85 c5 77
3 89 -21 140 -36 72 -117 160 -175 189 -156 79 -322 48 -445 -84 -67 -73 -86
-128 -86 -247 0 -69 4 -92 25 -133 14 -27 25 -54 25 -59 0 -10 -148 -46 -156
-38 -3 3 -9 32 -14 66 -13 94 -37 155 -80 204 -113 128 -284 168 -427 100 -75
-35 -157 -113 -190 -181 -25 -51 -28 -68 -28 -157 0 -100 0 -101 41 -170 l42
-70 -70 -32 c-39 -18 -72 -33 -73 -33 -1 0 -5 15 -8 34 -16 98 -111 222 -207
271 -49 25 -60 26 -164 23 -91 -2 -119 -7 -158 -26 -70 -35 -134 -96 -165
-160 -26 -53 -28 -65 -27 -174 1 -113 2 -118 34 -170 18 -29 43 -66 56 -81 13
-16 24 -32 24 -36 0 -8 -129 -85 -134 -80 -1 2 -8 22 -14 45 -27 93 -144 197
-260 230 -152 45 -339 -42 -420 -194 -27 -50 -32 -71 -32 -125 0 -142 27 -216
111 -298 l57 -57 -55 -53 -55 -54 -26 35 c-115 151 -184 190 -335 190 -139 0
-190 -30 -312 -183 -36 -47 -38 -52 -43 -141 -6 -126 12 -187 78 -259 28 -30
73 -69 100 -87 56 -36 56 -30 -12 -110 l-37 -43 -56 49 c-30 27 -77 64 -103
82 -46 32 -48 32 -168 32 l-121 0 -59 -38 c-70 -45 -114 -93 -152 -165 -24
-47 -27 -62 -27 -157 0 -98 2 -109 30 -159 16 -30 49 -73 71 -97 41 -42 129
-94 159 -94 8 0 15 -3 15 -7 0 -12 -71 -133 -78 -133 -4 0 -34 20 -67 45 -33
25 -78 50 -99 56 -61 17 -243 8 -288 -15 -66 -32 -125 -93 -160 -164 -31 -63
-33 -73 -33 -172 1 -95 3 -110 28 -158 52 -100 152 -177 248 -189 22 -3 43
-11 45 -18 5 -12 -32 -123 -46 -139 -5 -4 -37 8 -72 28 -64 35 -67 36 -174 36
-95 0 -116 -3 -162 -25 -117 -54 -212 -194 -212 -311 0 -150 69 -263 220 -357
14 -8 60 -18 103 -22 50 -5 77 -12 77 -20 0 -37 -25 -128 -37 -132 -8 -3 -35
3 -61 13 -70 28 -219 25 -289 -5 -65 -29 -145 -112 -181 -188 -23 -50 -27 -71
-27 -153 0 -89 2 -99 34 -157 40 -74 108 -141 179 -177 45 -23 64 -26 148 -26
l97 0 -7 -67 c-4 -38 -11 -72 -15 -76 -4 -4 -39 -2 -78 4 -179 29 -313 -41
-397 -210 -46 -91 -49 -165 -10 -267 72 -191 217 -270 429 -234 64 10 72 2 77
-77 4 -61 4 -61 -25 -67 -16 -3 -63 -6 -104 -6 -59 0 -83 -5 -125 -26 -68 -35
-138 -106 -174 -179 -26 -54 -29 -70 -29 -155 0 -88 3 -100 33 -158 39 -74
102 -141 164 -173 35 -19 63 -24 152 -27 97 -4 113 -2 157 19 27 12 52 20 55
16 10 -10 44 -140 39 -146 -3 -3 -43 -7 -88 -10 -79 -6 -84 -8 -142 -52 -84
-66 -110 -95 -141 -164 -21 -45 -29 -80 -32 -143 -4 -77 -2 -87 27 -146 39
-79 110 -147 199 -189 59 -28 78 -32 152 -32 81 0 88 2 161 42 l76 43 12 -28
c7 -15 21 -48 32 -74 l18 -47 -42 -11 c-127 -32 -215 -98 -264 -198 -25 -51
-28 -68 -28 -157 0 -89 3 -107 28 -160 34 -72 94 -137 162 -173 46 -25 59 -27
165 -26 127 1 145 6 238 76 29 21 56 37 61 34 5 -3 25 -33 44 -66 l37 -61 -28
-10 c-105 -39 -177 -102 -229 -200 -25 -49 -28 -64 -28 -154 0 -90 3 -106 29
-156 37 -74 107 -144 181 -181 57 -29 64 -30 156 -25 120 6 169 27 250 104
l60 57 55 -56 56 -55 -45 -26 c-54 -32 -121 -105 -153 -169 -21 -41 -24 -61
-24 -156 0 -96 3 -114 26 -160 32 -65 99 -133 159 -162 53 -26 173 -44 230
-36 95 15 210 95 262 183 l25 43 60 -52 60 -51 -45 -39 c-87 -74 -133 -194
-125 -324 8 -126 79 -224 207 -287 60 -29 74 -32 161 -32 110 0 155 17 236 88
50 44 104 120 104 146 1 44 16 45 84 7 36 -20 66 -39 66 -42 0 -3 -17 -28 -39
-57 -70 -94 -75 -110 -75 -237 0 -105 2 -120 26 -165 34 -64 98 -126 168 -162
51 -26 64 -28 165 -28 96 0 116 3 154 24 100 53 182 159 197 259 4 23 10 42
13 42 13 0 136 -43 144 -50 4 -4 -11 -40 -35 -81 -42 -73 -43 -75 -43 -169 0
-89 2 -99 34 -158 44 -81 124 -154 199 -182 48 -19 72 -21 153 -18 115 6 162
25 233 96 64 62 98 136 104 225 l5 69 41 -6 c68 -11 116 -26 116 -37 0 -5 -9
-27 -20 -49 -16 -32 -20 -59 -20 -146 0 -102 1 -109 32 -163 42 -73 105 -133
176 -168 50 -25 68 -28 152 -28 82 0 103 4 152 27 69 32 142 103 183 178 28
51 30 62 29 154 l-2 98 71 -7 c40 -4 75 -9 78 -11 4 -2 3 -21 -2 -41 -5 -21
-9 -70 -9 -110 0 -98 26 -164 95 -241 105 -115 261 -153 398 -96 114 48 179
117 218 233 18 54 21 76 14 140 -14 140 -21 126 66 129 l75 3 -4 -90 c-4 -80
-2 -95 21 -145 34 -74 113 -155 184 -192 53 -26 67 -29 158 -29 90 0 105 3
153 28 71 37 135 98 171 161 25 44 30 66 36 157 6 96 5 109 -16 151 -12 25
-19 53 -16 61 6 15 133 45 145 33 3 -4 9 -40 13 -80 9 -89 34 -142 100 -208
76 -76 122 -93 254 -93 101 0 114 2 164 28 68 36 142 110 175 175 23 44 26 64
26 146 0 91 -1 97 -41 171 -22 43 -37 81 -32 85 11 10 120 50 137 50 8 0 15
-17 18 -44 11 -98 94 -208 193 -256 43 -22 64 -25 155 -25 99 0 110 2 172 33
71 35 132 94 164 160 14 27 20 66 22 145 2 60 1 119 -2 133 -4 13 -31 59 -60
103 l-54 79 70 37 c38 20 71 35 72 33 1 -1 8 -22 15 -46 15 -54 111 -158 183
-198 48 -26 62 -29 148 -29 86 0 101 3 161 31 81 39 142 92 180 159 27 47 29
57 29 164 0 108 -1 116 -32 173 -17 32 -54 79 -81 104 l-51 45 56 56 55 55 47
-60 c101 -132 196 -179 336 -167 136 11 243 83 302 203 27 55 37 192 19 259
-22 82 -104 182 -197 240 -18 10 -15 16 36 67 l55 57 28 -35 c73 -91 178 -136
315 -136 64 0 82 4 134 32 71 38 137 108 174 186 24 49 28 70 28 147 0 79 -3
97 -28 148 -42 84 -108 150 -189 187 l-67 30 22 40 c13 22 32 52 43 66 l20 25
46 -35 c93 -70 119 -79 243 -79 122 0 170 14 234 68 85 72 123 162 124 293 0
80 -4 100 -26 146 -49 100 -144 176 -251 201 -58 14 -60 21 -21 110 l25 56 75
-41 c86 -47 146 -58 231 -40 71 15 103 29 171 80 139 104 177 268 100 436 -53
115 -150 185 -285 204 -41 6 -76 12 -78 14 -6 6 24 127 34 137 7 7 33 3 74
-11 52 -18 81 -21 154 -18 111 5 166 29 235 105 112 122 138 278 69 420 -11
23 -47 67 -79 97 -79 72 -146 98 -264 100 l-88 1 5 69 c4 38 10 72 14 77 4 4
35 3 68 -3 33 -5 90 -8 126 -5 81 5 173 51 228 113 48 55 94 171 99 250 4 57
1 68 -39 145 -24 46 -60 100 -81 121 -78 78 -186 108 -321 88 -44 -6 -80 -10
-82 -8 -1 2 -5 36 -9 76 l-6 72 97 0 c115 0 172 21 247 90 115 106 151 257 96
402 -25 67 -90 150 -147 189 -42 29 -56 33 -156 41 -100 9 -114 8 -160 -11
-78 -33 -82 -31 -102 49 -10 39 -16 72 -14 74 2 1 39 8 83 14 142 22 234 90
293 219 23 49 27 72 27 143 -1 57 -6 97 -17 122 -27 59 -111 152 -177 197
l-62 41 -102 0 c-99 0 -103 -1 -174 -40 -40 -22 -77 -40 -81 -40 -7 0 -61 126
-61 142 0 3 23 11 52 17 73 16 142 57 198 118 63 69 83 129 82 245 0 76 -4 97
-30 151 -35 75 -99 142 -167 173 -43 20 -66 24 -158 24 -125 0 -154 -9 -240
-77 -32 -25 -59 -44 -61 -42 -15 20 -77 131 -75 133 2 2 30 15 61 29 76 34
151 105 188 180 27 54 30 69 30 156 0 85 -3 103 -29 158 -36 74 -100 142 -170
177 -45 23 -62 26 -161 26 -132 0 -157 -10 -253 -100 l-64 -59 -54 55 -54 56
25 16 c60 40 127 101 152 137 39 59 51 112 46 212 -4 71 -10 99 -33 146 -34
69 -106 139 -178 172 -70 33 -199 35 -282 4 -64 -24 -164 -110 -189 -164 -9
-19 -20 -35 -24 -35 -4 0 -32 23 -62 49 l-55 49 63 65 c87 92 102 127 102 257
0 114 -12 155 -67 227 -39 51 -130 107 -207 128 -117 32 -237 1 -331 -86 -52
-48 -105 -132 -105 -167 l0 -22 -52 26 c-29 15 -63 33 -75 41 l-22 14 35 46
c83 108 86 120 82 256 -3 100 -7 129 -25 162 -31 57 -109 130 -173 159 -48 23
-68 26 -164 26 -106 0 -109 -1 -166 -35 -95 -57 -160 -145 -189 -252 l-12 -43
-66 25 c-37 14 -69 28 -72 30 -3 3 5 22 18 43 48 80 55 106 59 208 3 88 1 106
-19 149 -30 64 -112 145 -179 178 -153 75 -310 48 -422 -71 -63 -67 -89 -123
-99 -211 -5 -40 -10 -75 -12 -77 -3 -4 -148 26 -155 31 -1 1 7 24 18 51 17 38
21 71 23 158 1 98 -1 116 -22 155 -33 64 -111 135 -188 173 -60 29 -76 33
-148 32 -111 -1 -180 -29 -255 -104 -33 -33 -69 -82 -85 -116 -25 -54 -27 -65
-23 -151 l5 -93 -76 7 c-42 3 -77 7 -79 8 -1 1 3 35 9 76 15 98 8 154 -28 230
-44 93 -108 152 -204 189 -103 40 -160 39 -256 -1z m697 -740 c273 -34 766
-135 965 -199 190 -61 608 -236 836 -351 440 -220 837 -516 1259 -938 597
-598 915 -1097 1223 -1921 132 -354 228 -769 271 -1175 33 -311 29 -913 -9
-1200 -57 -438 -192 -893 -431 -1452 -120 -281 -184 -401 -351 -656 -393 -601
-958 -1165 -1563 -1559 -288 -188 -490 -289 -945 -473 -316 -128 -469 -170
-950 -259 -323 -61 -391 -67 -770 -73 -482 -7 -691 10 -1104 93 -372 74 -517
119 -951 296 -404 165 -525 228 -860 446 -320 209 -548 399 -865 723 -415 425
-696 818 -931 1304 -255 526 -432 1102 -506 1645 -21 152 -23 202 -23 635 0
397 3 492 18 610 39 297 80 490 162 764 85 284 266 743 391 993 420 839 1269
1702 2124 2161 181 97 598 275 835 357 362 124 862 225 1248 250 219 14 736 2
927 -21z"/>
<path d="M5550 10934 c-119 -11 -378 -48 -495 -70 -1101 -212 -2141 -843
-2906 -1764 -344 -414 -652 -975 -828 -1507 -196 -591 -279 -1212 -252 -1868
17 -407 102 -840 256 -1300 78 -234 138 -375 264 -620 278 -540 539 -895 967
-1315 363 -356 671 -584 1129 -834 536 -292 1141 -478 1795 -552 190 -21 790
-21 995 1 996 105 1906 486 2670 1119 66 55 198 177 294 270 273 269 448 477
640 761 449 665 715 1381 818 2205 15 119 18 219 18 565 0 377 -3 437 -23 586
-127 954 -463 1741 -1066 2493 -140 175 -478 523 -651 671 -680 578 -1478 951
-2345 1094 -348 57 -425 63 -845 66 -214 1 -410 1 -435 -1z m711 -44 c617 -32
1211 -178 1760 -433 191 -88 522 -279 764 -440 260 -173 381 -272 600 -492
301 -302 426 -449 617 -730 470 -689 738 -1381 838 -2164 59 -457 45 -1029
-36 -1481 -58 -321 -178 -726 -304 -1020 -207 -485 -621 -1137 -905 -1424
-375 -380 -557 -532 -923 -773 -331 -217 -473 -292 -878 -458 -347 -143 -474
-180 -859 -254 -401 -76 -556 -91 -940 -91 -388 0 -560 17 -945 91 -444 87
-527 113 -1015 319 -263 111 -459 219 -765 424 -323 215 -474 340 -765 631
-241 240 -350 374 -538 661 -412 628 -636 1152 -766 1795 -71 349 -97 669 -88
1084 7 299 16 405 52 637 108 696 351 1311 771 1951 198 301 372 513 626 762
254 251 425 389 730 593 362 242 509 317 950 486 476 182 893 287 1263 316
283 22 471 24 756 10z"/>
<path d="M5970 10703 c-32 -26 -32 -28 -28 -99 l5 -72 -36 -6 c-20 -3 -114 -6
-208 -6 -166 0 -173 -1 -173 -20 0 -19 7 -20 130 -20 l130 0 0 -104 c0 -113
-7 -130 -57 -142 -39 -10 -58 7 -61 55 -3 45 14 70 51 71 11 0 17 8 17 25 0
22 -4 25 -37 25 -71 0 -123 -50 -123 -117 0 -39 30 -92 61 -108 33 -17 102
-20 130 -5 18 10 19 7 19 -40 l0 -50 34 0 34 0 4 104 c3 94 6 108 27 130 26
28 59 34 79 14 21 -21 14 -82 -13 -122 -31 -45 -31 -50 -1 -69 22 -15 25 -14
44 6 62 67 79 150 45 208 -21 36 -45 43 -124 37 l-60 -4 3 40 3 41 118 3 c109
2 117 4 117 22 0 18 -7 20 -72 21 -73 1 -76 2 -26 13 25 6 26 8 17 38 -13 48
-11 66 11 88 45 45 100 17 139 -70 29 -63 27 -70 -15 -70 -33 0 -35 -2 -32
-27 2 -22 9 -29 31 -31 26 -3 28 -6 23 -35 -10 -61 -18 -276 -12 -311 6 -33
10 -36 40 -36 l33 0 6 68 c4 37 9 120 13 185 7 114 7 117 30 117 20 0 24 5 24
29 0 23 -5 30 -21 33 -17 2 -26 17 -41 66 -13 45 -31 75 -62 107 l-43 45 -71
0 c-62 0 -74 -3 -102 -27z"/>
<path d="M4902 10587 c-36 -37 -45 -86 -29 -159 8 -36 7 -38 -18 -38 -21 0
-25 -5 -25 -29 0 -27 3 -30 37 -33 34 -3 38 -6 45 -38 16 -78 60 -276 65 -293
3 -14 13 -17 36 -15 29 3 32 7 35 39 2 19 -11 89 -27 155 -31 121 -39 194 -21
194 6 0 10 11 10 25 0 20 -5 25 -24 25 -55 0 -70 85 -22 127 25 22 34 23 90
17 101 -11 266 -57 253 -71 -4 -3 -64 -13 -134 -22 l-128 -17 -3 -33 -3 -33
64 6 c61 7 65 6 71 -16 13 -49 7 -78 -18 -88 -13 -5 -27 -13 -30 -18 -17 -27
103 -112 139 -98 16 6 17 15 10 94 -15 156 -17 147 37 150 l47 3 7 -48 c3 -26
16 -106 28 -178 l21 -130 40 0 c48 0 48 -12 14 214 -19 128 -21 165 -11 168 6
3 12 18 12 34 0 27 -3 29 -38 29 -24 0 -62 13 -104 35 -114 61 -169 75 -288
75 l-106 0 -32 -33z"/>
<path d="M7170 10544 c-6 -14 -10 -34 -10 -45 0 -18 6 -20 48 -17 46 3 47 4
50 39 3 31 -1 37 -20 43 -42 11 -58 6 -68 -20z"/>
<path d="M4476 10495 c-9 -13 -16 -27 -16 -30 0 -2 45 -27 100 -55 92 -46 121
-70 86 -70 -23 0 -45 -28 -39 -50 3 -11 13 -20 22 -20 35 0 59 -45 99 -184 22
-76 47 -145 55 -153 17 -17 67 -8 67 13 0 12 -72 301 -86 347 -4 11 0 17 11
17 12 0 15 7 13 27 -2 23 -9 29 -38 33 -20 4 -80 37 -141 78 -59 40 -109 72
-112 72 -2 0 -12 -11 -21 -25z"/>
<path d="M6710 10431 c0 -28 3 -29 83 -48 l82 -19 -3 -43 c-5 -73 -14 -79 -55
-36 -31 32 -40 36 -66 30 -17 -4 -31 -9 -31 -11 0 -11 112 -271 125 -291 13
-19 19 -21 45 -12 16 6 30 15 30 20 0 5 -14 37 -31 70 -17 34 -28 67 -25 75 3
8 21 22 40 31 35 16 36 16 56 -10 14 -18 31 -27 50 -27 16 0 31 -3 33 -7 3 -5
-2 -43 -10 -85 -9 -42 -13 -88 -9 -101 7 -30 35 -43 53 -24 8 7 31 90 51 183
37 165 39 169 65 172 22 3 27 8 27 33 0 16 -1 29 -3 29 -1 0 -112 23 -245 50
-133 28 -247 50 -252 50 -6 0 -10 -13 -10 -29z m356 -97 c19 -5 21 -11 17 -52
-7 -67 -18 -75 -82 -61 l-52 11 7 46 c4 26 8 50 11 55 5 8 69 9 99 1z"/>
<path d="M7268 10305 c-7 -32 2 -38 90 -66 40 -13 72 -29 72 -36 0 -18 -42
-103 -51 -103 -4 0 -18 18 -30 40 -16 29 -29 40 -46 40 -21 0 -23 -5 -23 -45
0 -25 16 -94 35 -154 19 -59 35 -116 35 -126 0 -15 6 -16 38 -10 20 3 41 10
45 14 4 4 -8 44 -27 88 l-34 81 36 7 c20 3 45 8 54 11 10 3 19 -3 23 -16 9
-28 42 -45 60 -30 10 8 15 8 21 -1 4 -7 2 -15 -4 -17 -35 -11 9 -126 64 -169
28 -21 49 -27 109 -31 41 -2 75 -6 75 -9 0 -2 -9 -21 -20 -43 -11 -22 -20 -46
-20 -55 0 -19 43 -40 64 -32 9 4 51 76 93 162 72 144 80 155 105 155 23 0 28
4 28 25 0 21 -11 31 -76 63 -74 36 -76 36 -90 18 -20 -27 -18 -46 5 -46 33 0
34 -18 6 -75 -32 -65 -74 -95 -147 -101 -56 -5 -93 7 -112 38 -14 24 -4 30 60
39 78 11 101 28 110 86 15 98 -42 173 -131 173 -59 0 -77 -22 -73 -91 3 -49 6
-55 31 -63 35 -13 50 5 36 43 -8 20 -7 28 7 38 48 35 78 -63 33 -108 -30 -30
-100 -20 -138 20 -15 15 -41 32 -59 35 -17 4 -34 11 -36 14 -2 4 3 28 11 55
13 44 16 47 48 47 32 0 35 3 35 29 0 22 -6 31 -27 39 -38 14 -272 92 -277 92
-2 0 -6 -11 -8 -25z"/>
<path d="M4505 10302 c-372 -145 -415 -164 -415 -192 0 -27 20 -26 125 10 104
35 95 34 95 16 0 -8 -30 -30 -67 -48 -39 -20 -69 -42 -71 -52 -7 -35 8 -62 48
-85 30 -17 40 -28 40 -47 0 -14 4 -33 10 -43 11 -21 79 -51 113 -51 12 0 60
30 107 65 l85 64 14 -35 c13 -32 17 -34 45 -28 17 3 34 9 38 13 3 3 -22 85
-58 181 -57 156 -62 176 -48 187 11 8 14 20 10 37 -7 29 -15 30 -71 8z m-3
-167 c15 -38 27 -84 28 -101 0 -36 -50 -108 -91 -129 -33 -17 -75 -20 -84 -4
-14 21 5 57 36 68 21 7 29 16 27 28 -4 19 -23 21 -110 8 -27 -4 -48 -4 -48 1
0 5 30 25 68 44 l67 35 -3 53 c-3 47 -1 53 20 62 47 19 61 9 90 -65z"/>
<path d="M3730 10175 c-11 -13 0 -21 71 -54 46 -21 94 -41 107 -45 29 -10 27
-17 -11 -41 -18 -12 -32 -29 -32 -40 0 -16 8 -21 40 -23 l40 -3 81 -157 c45
-86 86 -158 90 -159 5 -2 22 8 38 20 l29 24 -82 158 c-74 141 -81 160 -67 170
34 25 3 75 -46 75 -13 0 -66 20 -117 45 -100 49 -122 53 -141 30z"/>
<path d="M3518 10055 c-6 -14 -9 -27 -7 -28 2 -2 47 -18 99 -36 52 -18 99 -36
103 -40 4 -5 -46 -38 -112 -75 -67 -37 -121 -72 -121 -77 0 -6 5 -19 10 -30 9
-15 15 -17 30 -9 31 17 39 12 64 -37 31 -62 74 -101 124 -116 l41 -12 -31 -48
c-34 -53 -30 -71 18 -65 24 2 36 16 75 83 26 44 51 78 56 76 4 -2 19 -22 33
-46 l25 -43 38 15 37 15 -89 174 c-76 147 -88 175 -74 182 27 16 0 48 -45 54
-22 3 -83 24 -136 47 -52 22 -103 41 -111 41 -9 0 -21 -11 -27 -25z m263 -245
c35 -66 34 -105 -2 -133 -21 -15 -31 -17 -47 -8 -22 12 -70 77 -89 123 -11 25
-10 28 30 52 59 36 75 31 108 -34z"/>
<path d="M8071 9968 c-7 -18 -4 -28 11 -45 25 -27 22 -37 -60 -187 -35 -66
-65 -133 -66 -150 -1 -29 2 -31 35 -34 28 -2 38 1 43 15 4 10 39 78 78 151 64
119 73 132 98 132 18 0 30 7 38 24 10 22 6 26 -79 70 l-89 47 -9 -23z"/>
<path d="M5615 9905 c-809 -93 -1510 -385 -2105 -879 -283 -235 -558 -538
-756 -831 -288 -427 -497 -926 -593 -1415 -62 -321 -66 -363 -66 -770 0 -407
4 -449 66 -766 295 -1510 1504 -2734 3017 -3054 319 -67 401 -75 817 -75 399
0 457 5 750 61 1157 223 2176 990 2721 2048 219 426 339 814 410 1326 28 197
25 741 -4 951 -105 750 -374 1377 -849 1974 -115 145 -428 457 -578 576 -599
476 -1237 747 -1986 843 -175 23 -681 29 -844 11z m776 -45 c417 -42 913 -186
1288 -374 267 -134 498 -281 711 -451 142 -113 467 -433 586 -576 302 -366
539 -798 691 -1259 57 -173 116 -409 149 -592 24 -131 26 -174 31 -497 7 -466
-9 -638 -93 -978 -73 -302 -170 -566 -300 -823 -388 -769 -906 -1302 -1661
-1710 -398 -215 -855 -361 -1328 -426 -190 -26 -769 -26 -940 -1 -542 81
-1051 256 -1478 508 -296 175 -510 342 -768 599 -338 337 -544 620 -749 1030
-113 226 -189 424 -265 695 -102 362 -135 608 -135 1000 0 373 28 603 114 937
138 535 367 1006 695 1428 132 170 410 457 601 620 349 297 828 557 1305 709
230 74 517 140 695 160 109 12 730 13 851 1z"/>
<path d="M5975 9604 c-27 -2 -131 -9 -230 -14 -112 -7 -184 -16 -192 -23 -6
-7 -25 -61 -43 -122 -17 -60 -38 -120 -46 -132 -14 -22 -96 -53 -140 -53 -17
0 -472 -124 -532 -145 -7 -3 -45 24 -85 58 -158 137 -159 137 -350 39 -156
-80 -400 -231 -455 -281 l-39 -36 12 -155 12 -155 -71 -70 c-40 -38 -111 -107
-158 -152 -47 -45 -126 -128 -174 -183 -53 -61 -98 -103 -113 -107 -14 -4 -88
1 -164 10 -77 10 -143 15 -147 12 -14 -9 -240 -391 -307 -520 -34 -66 -63
-132 -63 -147 0 -19 22 -50 81 -115 123 -133 117 -101 59 -314 -46 -165 -88
-331 -121 -474 -7 -27 -18 -59 -25 -70 -8 -11 -70 -41 -141 -70 l-127 -50 -10
-45 c-14 -65 -12 -520 2 -614 7 -47 19 -88 30 -99 32 -36 130 -74 233 -91 l37
-7 22 -92 c29 -119 111 -410 145 -512 15 -47 23 -90 20 -106 -3 -14 -37 -79
-75 -145 -41 -69 -70 -130 -70 -146 0 -35 74 -179 175 -338 79 -125 187 -274
207 -286 5 -4 73 6 149 22 l139 28 158 -155 c86 -85 211 -205 277 -266 l120
-111 -60 -121 -59 -121 29 -31 c64 -67 443 -299 547 -334 56 -20 65 -16 211
88 l99 69 126 -41 c162 -52 375 -107 473 -122 l76 -11 13 -41 c14 -48 73 -168
102 -209 33 -47 169 -68 445 -69 186 -1 312 13 350 37 21 13 143 244 143 270
0 7 38 16 103 23 167 19 300 54 436 115 69 31 133 56 144 56 12 0 70 -31 131
-69 141 -87 149 -91 183 -91 30 0 228 96 348 168 77 46 307 221 312 237 2 6
-17 46 -42 89 -25 44 -45 84 -45 90 0 6 119 130 265 276 l264 264 113 -27
c167 -40 166 -41 231 46 76 101 407 601 407 614 0 6 -47 66 -105 133 -58 68
-105 131 -105 142 0 11 29 115 65 232 36 116 79 270 96 341 17 72 34 137 38
145 4 8 68 56 143 107 l136 92 7 163 c6 146 -5 457 -21 559 -6 40 8 32 -205
119 -42 17 -84 39 -93 49 -9 9 -34 89 -55 177 -22 87 -58 218 -79 289 -63 204
-63 184 6 273 81 104 102 142 102 178 0 54 -117 269 -284 520 -105 159 -99
156 -223 130 -37 -8 -93 -16 -124 -18 l-55 -3 -259 239 -258 240 7 105 c4 58
10 131 13 162 l6 56 -99 66 c-198 130 -485 282 -557 294 -30 5 -45 -3 -148
-82 l-114 -87 -60 6 c-33 3 -136 28 -230 56 -93 28 -216 57 -273 65 -56 8
-111 20 -121 27 -11 6 -52 74 -92 150 -41 76 -80 140 -89 142 -23 7 -258 14
-315 10z m335 -660 c538 -69 1084 -336 1555 -761 451 -407 850 -1027 1009
-1571 73 -248 81 -309 80 -677 -1 -440 -27 -630 -129 -940 -102 -312 -219
-539 -383 -745 -134 -168 -521 -546 -582 -568 -7 -3 -450 721 -466 761 -5 15
27 50 148 167 141 135 162 160 250 296 52 82 114 185 136 230 59 118 127 328
158 489 26 132 27 158 28 440 1 342 -3 370 -82 609 -79 241 -240 534 -417 761
-74 96 -238 255 -355 347 -223 173 -546 336 -786 396 -109 27 -109 27 -489 27
l-380 0 -101 -27 c-289 -78 -547 -203 -772 -372 -53 -41 -154 -132 -223 -202
-309 -317 -475 -631 -519 -988 -19 -152 -7 -421 25 -560 34 -146 105 -358 159
-471 62 -132 237 -388 365 -534 52 -59 155 -153 195 -176 15 -9 1 -42 -130
-295 -204 -396 -444 -853 -454 -863 -9 -10 -220 182 -329 299 -95 102 -169
200 -308 406 -213 318 -354 660 -449 1089 -26 118 -28 140 -32 439 -4 362 5
456 68 705 58 226 179 556 272 737 180 353 583 799 947 1049 401 277 933 473
1401 519 114 11 447 2 590 -16z m15 -849 c363 -57 668 -209 979 -490 328 -296
605 -766 685 -1163 42 -205 36 -605 -13 -836 -65 -307 -188 -556 -398 -803
-89 -105 -228 -245 -239 -241 -5 2 -108 167 -228 368 l-219 365 18 30 c73 118
143 307 181 485 20 91 23 136 23 330 l1 225 -33 96 c-39 117 -123 285 -188
376 -108 152 -248 271 -418 353 -137 66 -225 90 -381 100 -399 27 -704 -73
-917 -299 -132 -139 -222 -292 -259 -441 -19 -73 -21 -104 -17 -259 4 -159 7
-183 31 -250 38 -106 113 -234 180 -308 31 -35 57 -68 57 -75 0 -6 -29 -65
-64 -132 -320 -609 -296 -567 -319 -554 -12 6 -83 72 -158 147 -103 103 -155
163 -209 246 -140 213 -258 496 -311 745 -19 87 -23 137 -23 295 -1 263 27
390 139 623 100 209 207 354 396 537 180 175 323 275 542 380 191 91 366 143
561 165 106 13 485 3 601 -15z m-155 -909 c371 -67 696 -371 817 -763 25 -82
27 -101 27 -278 1 -241 -25 -377 -121 -620 -52 -133 -52 -133 -115 -34 -54 84
-270 453 -303 519 -15 28 -18 61 -19 160 -1 125 -1 126 -40 205 -65 132 -244
292 -359 320 -34 9 -34 8 -47 90 -19 122 -108 307 -160 335 -16 9 -17 4 -12
-55 5 -67 -5 -138 -39 -266 l-20 -75 -67 -22 c-76 -24 -212 -105 -256 -151
l-29 -30 33 -41 32 -41 32 25 c72 58 133 96 163 102 l33 6 -25 -61 c-22 -54
-25 -75 -26 -203 0 -79 5 -159 10 -178 24 -79 24 -80 -93 -80 -56 0 -130 -3
-163 -6 l-60 -7 -64 -128 c-35 -71 -69 -129 -75 -129 -38 0 -143 168 -191 303
-35 98 -43 277 -18 398 87 431 472 715 975 718 58 0 139 -6 180 -13z m-233
-376 c11 -43 17 -103 17 -180 0 -110 -1 -119 -38 -215 -73 -188 -124 -300
-137 -300 -8 0 -22 16 -31 35 -14 28 -18 61 -18 156 0 134 5 156 83 329 42 96
68 167 82 229 8 40 21 24 42 -54z m179 -258 c99 -65 204 -192 230 -280 8 -25
14 -83 14 -129 l0 -83 -168 0 c-197 0 -322 9 -322 23 0 5 36 122 80 258 51
157 86 249 94 249 7 0 39 -17 72 -38z m340 -674 c51 -80 314 -560 314 -572 0
-25 -63 -110 -147 -197 -170 -176 -403 -303 -688 -376 -85 -21 -130 -26 -297
-30 -206 -6 -275 1 -403 38 -78 23 -315 133 -315 146 0 8 337 673 345 681 2 2
46 -22 98 -53 52 -31 128 -68 169 -82 64 -23 89 -27 208 -27 122 0 142 2 215
27 108 38 202 95 287 175 97 92 150 178 172 285 4 15 8 27 11 27 3 0 17 -19
31 -42z m-926 -95 c134 -66 186 -75 385 -71 155 3 162 4 225 34 36 17 83 46
105 65 43 38 41 31 -22 -57 -58 -83 -118 -136 -200 -178 -117 -58 -170 -69
-307 -63 -142 6 -173 15 -291 91 -48 30 -92 57 -98 59 -5 1 7 36 28 77 40 81
55 103 64 97 3 -1 53 -26 111 -54z m1680 -1238 c644 -1131 740 -1305 740
-1337 0 -8 -26 -33 -57 -55 -101 -70 -401 -236 -427 -236 -6 0 -67 37 -134 81
-68 45 -134 85 -146 88 -15 3 -92 -23 -222 -75 -199 -80 -230 -88 -528 -143
l-70 -13 -57 -134 c-31 -74 -63 -137 -70 -141 -40 -22 -218 -30 -379 -19 -91
7 -175 16 -188 20 -17 6 -40 45 -87 144 -58 122 -66 135 -90 135 -52 0 -181
33 -393 100 -263 83 -359 110 -392 110 -17 0 -53 -23 -109 -70 -133 -113 -149
-117 -245 -70 -46 23 -299 200 -331 232 -5 4 87 182 650 1266 98 189 183 346
190 349 7 2 80 -25 162 -60 243 -105 257 -109 489 -114 232 -6 351 5 510 46
147 39 263 87 392 163 94 55 126 82 262 220 117 118 158 154 166 145 6 -7 170
-291 364 -632z"/>
<path d="M6050 4314 c-41 -14 -108 -31 -148 -39 -40 -8 -81 -19 -92 -25 -45
-24 -125 -159 -166 -280 -28 -82 -27 -248 2 -311 37 -79 53 -89 140 -89 70 0
78 2 105 29 23 23 29 38 29 71 0 50 -14 80 -39 80 -25 0 -51 -31 -51 -61 0
-49 -43 -65 -76 -28 -48 53 13 249 77 249 10 0 25 -10 34 -22 15 -22 16 -23
46 -6 29 17 30 17 41 -7 13 -29 49 -33 69 -9 19 23 26 194 8 194 -22 0 -34
-12 -48 -48 -35 -85 -26 -8 10 85 17 44 12 53 -28 53 -21 0 -47 -7 -57 -15
-23 -17 -36 -19 -36 -5 0 29 112 67 153 51 33 -13 41 -50 41 -211 1 -112 4
-140 19 -163 16 -24 16 -28 2 -33 -9 -4 -15 -19 -15 -40 0 -37 24 -59 77 -70
52 -10 54 2 52 351 -2 337 0 326 -52 324 -12 0 -56 -12 -97 -25z"/>
<path d="M6246 4212 c-8 -14 -29 -448 -24 -518 3 -44 10 -69 23 -84 l20 -22 7
34 c4 18 11 160 14 316 7 282 7 282 -14 282 -11 0 -23 -4 -26 -8z"/>
<path d="M4910 4073 c-90 -16 -97 -20 -164 -117 -36 -51 -73 -110 -82 -130
l-18 -36 60 -63 c34 -34 71 -75 83 -92 12 -16 39 -41 59 -55 46 -32 49 -63 7
-70 -28 -5 -30 -9 -29 -46 0 -32 9 -52 38 -88 l38 -46 66 0 c60 0 68 -3 89
-27 19 -24 24 -26 33 -13 5 8 10 36 10 61 0 26 3 61 6 78 6 30 8 31 58 31 56
0 133 30 142 55 6 15 -21 55 -36 55 -4 0 -24 7 -44 15 l-37 16 21 26 c11 14
20 38 20 53 0 19 7 30 24 38 17 7 27 22 31 46 8 39 5 51 -37 164 -30 79 -33
82 -63 82 -22 0 -47 12 -76 35 -41 32 -49 35 -109 34 -36 -1 -76 -4 -90 -6z
m-56 -110 c-11 -55 -66 -95 -80 -59 -7 19 12 56 44 83 32 27 45 18 36 -24z
m97 -31 c7 -19 4 -24 -25 -36 -19 -8 -37 -19 -40 -25 -4 -6 -12 -9 -17 -6 -28
18 18 98 54 93 11 -2 24 -13 28 -26z m286 -72 c37 -75 38 -80 19 -80 -28 0
-67 45 -77 88 -19 87 13 82 58 -8z m-456 -40 c28 -15 27 -70 -2 -70 -41 0 -89
45 -74 70 8 13 51 13 76 0z m399 -86 c0 -48 -14 -70 -58 -93 -36 -18 -146 -51
-171 -51 -19 0 -12 38 11 54 12 9 43 23 68 31 27 9 63 32 85 55 49 50 65 51
65 4z"/>
<path d="M6968 4004 c-3 -3 -37 -12 -75 -20 -37 -8 -80 -23 -95 -34 -21 -16
-36 -19 -72 -14 l-46 7 0 -60 c0 -53 4 -66 33 -104 47 -62 49 -72 21 -110 -13
-18 -24 -37 -24 -41 0 -13 45 -27 129 -42 83 -14 80 -10 122 -113 28 -70 46
-69 54 5 3 31 7 64 8 72 1 8 25 30 52 47 40 26 60 33 100 33 76 0 99 38 53 88
l-23 23 33 59 c21 39 32 72 32 99 0 38 -2 41 -27 41 -33 0 -47 9 -56 33 -5 14
-20 17 -91 17 -47 0 -88 5 -91 10 -7 11 -28 13 -37 4z m-46 -123 c11 -41 7
-93 -8 -98 -15 -5 -23 16 -31 84 -5 50 -4 55 12 52 11 -3 22 -17 27 -38z"/>
<path d="M8270 9846 c0 -19 20 -37 109 -94 124 -80 138 -96 111 -130 l-19 -23
-114 61 c-62 33 -117 60 -121 60 -13 0 -2 -148 11 -161 9 -9 19 -6 43 15 l32
26 37 -21 c66 -40 65 -36 5 -139 l-55 -94 23 -18 c13 -10 28 -18 33 -18 6 0
56 68 113 150 94 136 106 150 133 150 51 0 37 34 -36 88 -87 64 -268 172 -289
172 -10 0 -16 -8 -16 -24z"/>
<path d="M3000 9444 c-69 -59 -142 -122 -164 -141 l-38 -35 21 -21 20 -21 45
32 c52 38 64 39 100 11 31 -25 33 -51 5 -90 -38 -54 -4 -79 107 -79 59 0 67 3
104 36 21 19 42 45 46 56 6 19 9 18 43 -16 l37 -36 28 29 28 29 -108 124
c-146 165 -139 155 -124 174 11 12 10 18 -6 34 -19 19 -21 18 -144 -86z m171
-128 c16 -21 29 -51 29 -66 0 -35 -47 -79 -93 -87 l-37 -6 0 69 c0 63 -2 70
-32 102 l-33 33 34 31 33 30 35 -34 c20 -18 48 -51 64 -72z"/>
<path d="M9061 9384 c-35 -31 -43 -34 -62 -24 -17 10 -24 9 -38 -4 -15 -15
-15 -19 2 -48 l18 -32 -131 -131 -131 -132 27 -32 27 -32 136 135 c107 106
141 134 157 130 31 -8 50 20 34 50 -24 46 12 90 73 88 54 -1 77 -34 134 -194
20 -57 47 -119 60 -138 l23 -35 0 55 c0 117 -70 294 -139 351 -30 25 -44 29
-93 29 -52 0 -62 -3 -97 -36z"/>
<path d="M2464 9213 c-18 -15 -36 -37 -42 -48 -18 -37 -23 -99 -9 -125 11 -23
62 -63 90 -73 7 -2 -9 -28 -39 -63 -120 -141 -126 -151 -112 -173 7 -12 17
-21 23 -21 5 0 42 37 82 83 109 125 129 143 148 127 8 -7 15 -15 15 -19 0 -4
-27 -42 -60 -85 -72 -94 -79 -135 -31 -188 l29 -32 113 -1 114 0 3 33 3 32
-63 0 c-72 0 -130 14 -148 34 -15 19 7 63 62 122 l41 44 92 -85 92 -84 27 27
c14 16 26 31 26 34 0 4 -63 61 -140 128 -126 109 -138 123 -127 141 10 16 8
23 -15 45 -26 26 -26 26 -33 5 -8 -27 -47 -37 -86 -21 -57 24 -61 98 -7 126
27 14 35 14 99 -6 l70 -21 -22 -30 c-20 -29 -20 -31 -4 -49 17 -19 18 -19 45
0 l26 19 127 -125 c133 -132 154 -143 184 -98 13 20 7 29 -116 156 -115 119
-128 136 -115 150 13 13 12 16 -6 33 -17 15 -24 16 -43 6 -18 -10 -30 -9 -59
3 -20 9 -74 18 -120 21 -80 6 -84 5 -114 -22z"/>
<path d="M9106 9217 c-17 -13 -12 -20 70 -111 49 -53 89 -102 89 -108 0 -6 -8
-16 -17 -22 -14 -9 -24 -4 -55 25 -57 54 -84 69 -124 69 -30 0 -43 -7 -73 -40
-54 -60 -49 -125 15 -210 37 -48 39 -54 29 -85 -12 -37 -3 -62 31 -84 17 -10
20 -6 30 33 9 35 16 46 37 51 15 4 33 11 39 17 16 13 17 70 1 86 -16 16 -53
15 -79 0 -18 -11 -23 -10 -40 11 -38 47 -18 151 30 151 6 0 43 -29 81 -65 38
-36 75 -65 82 -65 7 0 29 16 49 36 l36 35 29 -24 c26 -22 32 -23 49 -11 18 14
11 23 -136 169 -141 142 -156 154 -173 142z"/>
<path d="M9432 8858 c-7 -7 -12 -15 -12 -20 0 -4 46 -60 102 -125 56 -65 102
-119 103 -121 5 -7 35 12 35 22 0 14 -190 248 -205 253 -6 2 -16 -2 -23 -9z"/>
<path d="M2310 8693 c-15 -4 -103 -123 -170 -229 -33 -54 -34 -57 -15 -70 10
-8 22 -14 26 -14 5 0 34 38 66 85 32 47 62 85 66 85 5 0 24 -12 43 -27 26 -19
34 -32 32 -51 -3 -29 -18 -39 -70 -47 -34 -5 -38 -9 -38 -35 l0 -30 128 1
c183 1 236 9 240 34 5 41 -8 46 -106 37 -72 -6 -91 -5 -88 4 28 72 14 115 -50
154 -34 21 -36 25 -30 60 6 39 -3 50 -34 43z"/>
<path d="M9272 8667 c-28 -29 -42 -77 -42 -139 0 -74 13 -98 54 -98 l34 0 -5
78 c-5 70 -3 79 16 96 30 27 79 25 103 -3 27 -35 23 -60 -13 -73 -20 -7 -28
-15 -25 -25 3 -8 6 -23 6 -33 0 -16 7 -18 58 -13 34 3 67 1 79 -5 16 -9 24 -8
38 8 21 24 14 35 -30 50 -33 11 -35 14 -35 57 0 39 -5 50 -39 84 -37 38 -41
39 -108 39 -60 0 -73 -3 -91 -23z"/>
<path d="M9665 8558 c-11 -6 -21 -12 -23 -13 -1 -1 45 -76 103 -165 58 -89
105 -166 105 -170 0 -4 -15 -15 -34 -25 l-34 -19 -36 28 c-26 19 -36 35 -36
54 0 38 -43 126 -71 146 -15 10 -44 16 -77 16 -47 0 -56 -4 -83 -32 -35 -39
-49 -83 -49 -160 0 -46 4 -59 19 -68 41 -21 48 -13 54 59 7 82 19 109 52 117
40 10 71 -3 85 -35 16 -40 10 -65 -18 -69 -17 -3 -22 -10 -22 -32 0 -27 3 -29
48 -35 26 -3 54 -7 62 -8 29 -4 14 -23 -70 -86 -47 -35 -86 -69 -87 -75 -2 -6
5 -21 15 -34 l18 -24 152 96 c149 95 174 106 187 85 5 -7 13 -5 25 6 18 16 18
19 3 42 -15 23 -15 25 12 53 37 39 60 45 91 25 53 -35 48 -104 -13 -167 -33
-34 -37 -34 -51 -4 -8 18 -16 23 -31 19 -17 -4 -21 -13 -21 -47 l0 -41 -145
-69 c-79 -38 -152 -77 -161 -87 -15 -17 -15 -20 0 -44 9 -14 24 -25 33 -25 16
0 150 65 260 127 53 29 64 32 69 19 7 -18 27 -20 55 -6 15 9 17 15 9 30 -8 15
-2 30 30 76 63 90 77 171 40 232 -24 39 -75 72 -113 72 -44 0 -95 -26 -99 -50
-2 -11 -6 -22 -10 -23 -4 -1 -51 70 -105 157 -54 88 -102 161 -108 163 -5 1
-19 -3 -30 -9z"/>
<path d="M2044 8303 c-21 -38 -41 -73 -46 -80 -6 -8 -2 -15 12 -23 18 -10 26
-8 45 10 l23 22 148 -80 c190 -101 189 -101 202 -62 10 27 8 32 -21 53 -18 13
-87 55 -154 93 -109 61 -123 72 -123 95 0 24 -16 39 -40 39 -5 0 -26 -30 -46
-67z"/>
<path d="M1946 8138 c-42 -66 -53 -106 -31 -115 9 -3 27 0 41 8 20 10 31 10
62 0 61 -22 64 -28 42 -71 -11 -21 -24 -41 -29 -44 -5 -3 -29 3 -52 14 -92 41
-160 16 -175 -66 -10 -52 11 -88 54 -92 29 -3 32 0 32 22 0 14 -4 26 -10 26
-5 0 -10 11 -10 25 0 30 21 32 78 10 36 -15 37 -17 34 -55 l-4 -40 41 0 c46 0
119 32 128 56 3 9 -6 27 -21 43 -27 28 -27 30 -12 65 8 20 17 36 20 36 3 0 40
-17 82 -37 l76 -38 29 35 29 35 -166 83 c-164 82 -166 84 -161 112 4 20 2 30
-9 34 -28 11 -33 7 -68 -46z"/>
<path d="M1655 6636 c-17 -7 -43 -28 -58 -45 -23 -28 -27 -41 -27 -98 0 -61 2
-67 34 -99 32 -32 38 -34 99 -34 62 0 66 1 100 39 61 67 61 144 2 202 -49 49
-95 59 -150 35z"/>
<path d="M10430 6627 c-98 -34 -107 -190 -15 -247 42 -26 119 -27 161 -1 53
33 80 121 53 174 -6 12 -25 37 -42 55 -26 27 -38 32 -76 31 -26 0 -62 -5 -81
-12z"/>
<path d="M1665 5234 c-66 -13 -144 -29 -174 -35 l-53 -11 5 -44 c2 -25 7 -47
9 -49 2 -3 89 9 193 25 103 17 190 30 191 30 6 0 5 45 -2 79 -8 38 -8 38 -169
5z"/>
<path d="M10156 5243 c-3 -4 -6 -25 -6 -49 l0 -42 48 -7 c26 -3 90 -15 144
-26 53 -10 119 -19 147 -19 l51 0 0 44 c0 52 17 45 -190 76 -74 11 -147 22
-161 25 -15 2 -29 1 -33 -2z"/>
<path d="M1677 5030 c-229 -53 -210 -44 -202 -93 4 -23 10 -46 15 -50 4 -4 53
4 110 18 56 14 104 24 107 22 2 -3 -29 -35 -70 -73 -98 -91 -111 -112 -102
-165 l7 -41 47 6 c25 4 111 21 191 39 l145 32 3 43 c4 54 -5 58 -110 38 -47
-9 -90 -16 -98 -16 -7 0 26 40 74 90 47 49 86 98 86 108 0 25 -20 82 -28 81
-4 0 -83 -18 -175 -39z"/>
<path d="M10122 5058 c-6 -7 -13 -29 -17 -50 -6 -30 -4 -37 12 -41 10 -3 39
-10 66 -17 l47 -13 -6 -36 c-14 -73 -20 -86 -40 -84 -10 2 -42 5 -70 9 -48 6
-51 5 -57 -17 -4 -13 -7 -36 -7 -51 0 -29 -12 -25 259 -84 137 -29 143 -28
139 35 -3 33 -6 35 -74 58 l-72 24 5 42 c3 23 10 50 15 61 10 19 29 19 130 0
36 -6 37 -6 47 32 16 58 14 63 -26 69 -21 4 -97 22 -169 41 -145 37 -167 40
-182 22z"/>
<path d="M1780 4609 c-91 -34 -171 -67 -179 -74 -11 -11 -10 -24 7 -82 25 -82
71 -155 116 -183 72 -44 189 -14 271 70 37 38 40 45 38 92 -3 61 -60 238 -76
237 -7 0 -86 -27 -177 -60z m151 -106 c14 -37 3 -75 -31 -108 -24 -23 -41 -30
-89 -33 l-59 -4 -27 52 c-14 29 -24 54 -22 57 9 8 181 62 200 63 10 0 22 -11
28 -27z"/>
<path d="M10323 4574 c-4 -11 -17 -46 -28 -79 -16 -47 -25 -61 -42 -63 -13 -2
-75 13 -139 32 -64 20 -123 36 -129 36 -13 0 -35 -50 -35 -79 0 -12 44 -29
178 -69 97 -28 182 -52 188 -52 9 0 98 270 91 276 -1 1 -19 5 -39 9 -31 6 -39
4 -45 -11z"/>
<path d="M9856 4215 c-32 -75 -55 -139 -52 -142 9 -9 359 -153 363 -149 17 16
122 271 115 278 -5 5 -24 11 -43 14 l-34 5 -34 -85 c-19 -47 -37 -86 -41 -86
-17 0 -70 23 -70 30 0 4 14 40 30 78 17 39 30 76 30 81 0 13 -60 45 -68 37 -3
-4 -20 -39 -37 -79 -29 -66 -34 -72 -60 -70 -15 1 -30 4 -32 7 -3 3 12 46 32
96 41 97 40 106 -11 116 l-31 6 -57 -137z"/>
<path d="M1925 4199 c-88 -39 -164 -74 -169 -79 -6 -6 -4 -26 3 -51 11 -38 15
-41 40 -36 55 11 341 139 341 153 0 22 -33 84 -44 84 -6 0 -83 -32 -171 -71z"/>
<path d="M2031 3980 c-84 -10 -168 -21 -186 -24 l-34 -7 17 -44 c16 -44 18
-45 59 -45 41 0 44 -2 68 -50 31 -62 31 -74 -1 -99 l-26 -21 27 -45 26 -46 96
91 c53 49 119 115 146 145 52 59 53 67 25 138 -12 32 -4 32 -217 7z m109 -85
c0 -11 -63 -75 -75 -75 -17 0 -49 50 -38 60 10 11 113 24 113 15z"/>
<path d="M9748 3933 c-18 -16 -40 -37 -49 -47 -23 -28 -95 -164 -89 -169 17
-14 320 -187 328 -187 16 0 61 58 93 121 23 47 29 71 29 124 0 63 -1 66 -41
106 -54 54 -110 79 -181 79 -47 0 -62 -5 -90 -27z m137 -92 c62 -28 89 -63 81
-104 -3 -18 -12 -42 -20 -52 -16 -22 -27 -19 -137 45 -74 44 -78 57 -33 105
27 30 55 31 109 6z"/>
<path d="M2195 3650 c-88 -55 -161 -104 -163 -110 -5 -13 37 -80 49 -80 6 0
44 23 85 51 42 28 78 49 80 46 3 -3 -15 -50 -40 -105 -25 -54 -46 -109 -46
-121 0 -24 41 -71 62 -71 30 0 318 194 318 214 0 6 -10 24 -23 39 l-22 28 -94
-56 c-51 -30 -95 -55 -97 -55 -2 0 21 48 51 106 30 59 55 116 55 127 0 21 -37
87 -48 87 -4 0 -79 -45 -167 -100z"/>
<path d="M9474 3528 c-50 -57 -49 -53 -9 -129 20 -39 35 -72 32 -75 -2 -2 -36
1 -75 8 -79 13 -91 9 -119 -45 -20 -40 -12 -44 116 -52 119 -8 150 -18 217
-69 26 -20 50 -36 54 -36 8 0 40 66 40 85 0 7 -9 16 -20 20 -39 12 -107 103
-156 209 -27 58 -52 106 -55 106 -3 0 -14 -10 -25 -22z"/>
<path d="M2663 3244 c-34 -17 -226 -168 -256 -202 -23 -25 -16 -54 19 -77 22
-14 28 -15 42 -3 10 8 77 63 150 122 72 60 132 114 132 120 0 12 -41 56 -51
56 -2 0 -18 -8 -36 -16z"/>
<path d="M9270 3183 c-57 -9 -71 -15 -105 -45 -20 -17 -43 -44 -51 -59 -16
-33 -19 -135 -3 -176 28 -76 124 -133 222 -133 95 0 137 39 152 142 7 44 9 47
28 37 17 -10 23 -7 38 12 10 13 19 26 19 29 0 13 -153 131 -165 126 -7 -2 -37
-33 -65 -67 l-52 -63 28 -23 c36 -29 40 -29 60 2 23 36 44 32 44 -8 0 -71 -60
-103 -138 -72 -58 24 -92 66 -92 116 0 48 23 74 79 89 29 8 48 21 66 48 l25
37 -22 7 c-26 7 -32 7 -68 1z"/>
<path d="M2684 3023 c-66 -61 -130 -122 -143 -137 -26 -27 -26 -28 23 -84 l20
-23 78 78 c42 42 80 75 83 72 3 -3 -9 -45 -25 -94 -39 -115 -39 -162 -2 -198
15 -15 32 -27 38 -27 5 0 72 62 148 139 l138 138 -32 37 -33 37 -75 -73 c-54
-52 -77 -68 -79 -57 -2 9 12 60 32 114 l36 99 -45 44 -44 45 -118 -110z"/>
<path d="M8885 2841 c-30 -13 -76 -62 -91 -98 -18 -42 -18 -124 0 -167 19 -46
75 -107 113 -122 18 -8 59 -14 91 -14 67 0 118 27 165 87 23 31 27 46 27 100
0 81 -17 121 -75 178 l-47 45 -81 -1 c-45 0 -91 -4 -102 -8z m142 -110 c71
-52 91 -133 42 -177 -44 -40 -117 -14 -170 60 -37 50 -36 77 2 115 39 39 74
40 126 2z"/>
<path d="M3055 2782 c-51 -17 -58 -28 -63 -91 -4 -56 -2 -66 32 -122 45 -75
54 -107 32 -115 -20 -8 -83 31 -91 57 -4 11 -4 31 -1 43 4 17 -2 31 -20 50
-15 14 -32 26 -39 26 -14 0 -45 -58 -45 -84 0 -30 38 -92 76 -125 45 -40 73
-51 129 -51 59 0 94 30 102 88 5 38 0 55 -37 127 -43 84 -47 115 -13 115 34 0
63 -29 63 -64 0 -41 65 -111 80 -86 15 23 12 108 -5 139 -36 71 -132 115 -200
93z"/>
<path d="M3327 2582 c-24 -26 -22 -34 18 -72 19 -19 35 -38 35 -43 0 -5 -35
-59 -78 -121 -44 -61 -82 -116 -85 -122 -4 -7 11 -23 35 -39 35 -23 43 -25 52
-13 66 87 180 228 184 228 3 0 24 -11 48 -25 32 -19 45 -22 50 -13 4 7 14 23
21 34 13 21 8 26 -116 113 -72 50 -135 91 -139 91 -5 0 -16 -8 -25 -18z"/>
<path d="M8501 2504 c-17 -14 -31 -30 -31 -36 0 -11 13 -29 148 -200 56 -71
89 -105 98 -100 6 4 60 47 119 95 l106 88 -23 29 c-13 16 -27 29 -32 29 -5 1
-40 -24 -78 -55 -58 -47 -72 -54 -82 -43 -7 8 -52 60 -100 117 -49 56 -90 102
-91 102 -2 0 -17 -12 -34 -26z"/>
<path d="M3585 2255 c-42 -63 -87 -136 -101 -162 l-25 -48 26 -22 c14 -13 34
-23 44 -23 11 0 51 52 116 153 54 83 103 157 108 164 6 8 -4 18 -32 32 -22 12
-45 21 -51 21 -6 0 -44 -52 -85 -115z"/>
<path d="M8242 2342 c-69 -46 -92 -86 -92 -159 0 -43 6 -76 19 -101 24 -47 87
-107 126 -122 41 -16 111 -4 169 28 71 39 90 69 94 150 3 60 0 73 -28 120 -17
29 -49 66 -72 82 -36 26 -49 30 -108 30 -57 0 -73 -4 -108 -28z m154 -87 c27
-17 64 -84 64 -115 0 -29 -26 -76 -45 -84 -35 -13 -74 -5 -105 20 -41 35 -60
74 -60 123 0 73 75 102 146 56z"/>
<path d="M3786 2255 c-9 -13 -16 -26 -16 -29 0 -2 20 -16 45 -30 25 -15 45
-29 45 -33 0 -3 -22 -44 -49 -92 -26 -47 -60 -109 -74 -138 l-27 -52 34 -20
c18 -12 37 -21 42 -21 5 0 43 59 84 130 41 72 78 130 83 130 4 0 31 -10 59
-22 42 -18 51 -19 59 -7 23 36 10 57 -68 107 -81 51 -176 102 -192 102 -5 0
-16 -11 -25 -25z"/>
<path d="M7990 2184 c-19 -8 -36 -16 -38 -18 -2 -2 20 -49 47 -105 28 -55 51
-103 51 -106 0 -2 -48 27 -106 65 -58 39 -114 70 -125 70 -28 0 -89 -32 -89
-47 0 -25 161 -334 177 -340 23 -9 67 19 71 44 2 11 -17 59 -42 107 -25 47
-43 86 -40 86 2 0 54 -32 115 -71 l110 -72 50 23 c27 13 49 26 49 29 -2 17
-176 346 -185 348 -5 1 -26 -5 -45 -13z"/>
<path d="M4101 2067 c-11 -18 -34 -67 -51 -109 -56 -142 -56 -204 3 -254 44
-37 88 -54 142 -54 40 0 50 5 88 43 69 69 161 264 134 285 -13 10 -79 34 -82
30 -1 -2 -23 -47 -48 -101 -63 -135 -81 -157 -121 -157 -19 0 -40 8 -49 18
-16 17 -16 22 2 73 10 30 35 91 55 136 20 45 36 85 36 91 0 11 -45 32 -70 32
-10 0 -27 -15 -39 -33z"/>
<path d="M7576 1997 c-16 -12 -16 -16 3 -77 11 -36 17 -67 13 -71 -11 -9 -91
-39 -105 -39 -7 0 -22 26 -34 58 -18 50 -23 57 -44 54 -29 -4 -69 -29 -69 -43
0 -15 121 -332 132 -346 7 -9 20 -8 54 4 24 8 44 19 44 24 0 5 -11 38 -25 75
-14 36 -25 68 -25 70 0 8 58 33 91 39 l35 6 23 -65 c13 -37 27 -69 31 -71 5
-3 27 2 50 11 39 16 42 19 37 49 -8 50 -83 236 -117 288 -31 50 -59 60 -94 34z"/>
<path d="M4450 1934 c-17 -43 -12 -53 33 -65 23 -6 45 -13 49 -15 3 -2 -16
-70 -43 -151 -27 -81 -46 -150 -41 -154 4 -3 25 -13 48 -22 l40 -15 49 138
c27 77 51 144 55 150 4 7 22 7 58 -1 29 -7 54 -10 57 -8 2 3 6 20 7 38 l3 34
-145 48 c-79 27 -148 49 -152 49 -5 0 -13 -12 -18 -26z"/>
<path d="M4801 1803 c-41 -151 -81 -337 -74 -344 13 -12 181 -59 239 -65 51
-6 53 -6 60 20 3 15 1 32 -5 40 -10 12 -101 41 -156 48 -16 3 -19 10 -17 38 2
19 5 36 7 38 1 2 42 -4 90 -13 98 -19 105 -16 105 40 0 30 -1 31 -81 47 -45 9
-84 19 -86 22 -3 3 -2 17 1 32 6 22 11 25 34 20 15 -3 58 -11 95 -18 76 -14
87 -8 87 43 0 26 -4 28 -132 58 -73 17 -138 31 -145 31 -7 0 -17 -17 -22 -37z"/>
<path d="M7080 1833 c-8 -3 -32 -21 -52 -41 -91 -86 -66 -281 42 -337 19 -10
57 -15 109 -15 71 0 83 3 111 26 36 31 56 66 65 117 l7 37 -39 0 c-42 0 -63
-14 -63 -42 0 -53 -88 -78 -128 -35 -29 31 -52 89 -52 132 0 69 83 112 132 68
15 -13 26 -15 56 -7 46 11 51 32 17 73 -26 30 -29 31 -108 30 -45 0 -89 -3
-97 -6z"/>
<path d="M6805 1765 c-5 -2 -58 -13 -117 -25 -106 -22 -107 -23 -102 -49 11
-67 54 -300 60 -330 l7 -34 61 7 c34 3 103 14 154 23 l94 17 -6 40 c-4 22 -9
42 -12 45 -2 3 -47 -3 -99 -13 -51 -10 -99 -15 -104 -11 -14 8 -14 62 0 70 6
4 43 13 82 19 l72 12 0 35 c0 32 -2 34 -38 37 -21 2 -62 -2 -90 -8 -53 -11
-67 -5 -67 32 0 13 18 20 78 33 116 25 112 23 112 55 0 39 -41 60 -85 45z"/>
<path d="M5367 1689 c-15 -12 -39 -41 -53 -65 -24 -40 -26 -52 -22 -138 3 -84
6 -97 28 -121 53 -56 153 -86 219 -64 53 18 89 48 119 99 54 91 23 239 -61
291 -47 28 -190 27 -230 -2z m178 -82 c38 -32 45 -99 16 -155 -12 -23 -30 -46
-40 -52 -34 -18 -80 -12 -106 15 -21 20 -25 34 -25 84 0 53 4 65 31 96 38 43
83 47 124 12z"/>
<path d="M6328 1693 l-108 -15 0 -42 0 -42 51 6 c36 5 52 3 56 -6 2 -6 10 -77
16 -155 l12 -144 59 -3 59 -3 -6 30 c-4 17 -10 92 -13 166 l-7 135 45 0 c24 0
47 2 49 4 3 3 3 23 1 45 l-4 41 -52 -1 c-28 -1 -99 -8 -158 -16z"/>
<path d="M5750 1557 c0 -68 -3 -158 -6 -200 l-7 -77 57 0 56 0 0 75 0 74 83 3
82 3 3 37 3 37 -78 3 -78 3 -3 44 -3 43 93 -3 93 -4 3 43 3 42 -150 0 -151 0
0 -123z"/>
</g>
</svg>
