<?xml version="1.0" standalone="no"?>
<!DOCTYPE svg PUBLIC "-//W3C//DTD SVG 20010904//EN"
 "http://www.w3.org/TR/2001/REC-SVG-20010904/DTD/svg10.dtd">
<svg version="1.0" xmlns="http://www.w3.org/2000/svg"
 width="354.000000pt" height="284.000000pt" viewBox="0 0 354.000000 284.000000"
 preserveAspectRatio="xMidYMid meet">

<g transform="translate(0.000000,284.000000) scale(0.100000,-0.100000)"
fill="#000000" stroke="none">
<path d="M1389 2497 c-139 -47 -261 -143 -457 -358 l-123 -134 33 -3 c29 -3
38 3 83 55 93 109 260 275 321 319 88 63 180 104 234 104 60 0 130 -46 280
-184 119 -110 226 -190 270 -201 14 -3 0 8 -30 25 -104 58 -104 55 18 140 58
41 115 78 125 82 40 17 74 -7 217 -152 113 -114 154 -149 186 -159 43 -14 81
-42 207 -151 41 -36 102 -80 136 -98 75 -41 81 -35 9 7 -29 16 -109 78 -178
136 -76 64 -148 116 -183 132 -49 22 -72 43 -144 127 -126 149 -190 195 -255
182 -18 -4 -82 -42 -143 -86 l-110 -80 -105 104 c-133 131 -209 192 -257 205
-51 15 -58 14 -134 -12z"/>
<path d="M2783 2276 c-50 -16 -193 -103 -193 -117 0 -24 32 -18 72 13 132 101
308 115 462 36 136 -69 238 -261 223 -418 -3 -30 -8 -64 -12 -75 l-7 -20 13
20 c7 11 15 57 17 102 10 193 -91 356 -274 440 -48 22 -76 27 -159 30 -66 2
-114 -2 -142 -11z"/>
<path d="M466 2079 c-3 -17 -6 -80 -6 -140 l0 -109 523 2 522 3 3 70 c2 39 -2
101 -8 138 l-12 68 -36 -3 c-43 -4 -49 -19 -51 -115 -1 -62 -17 -94 -28 -54
-7 27 -39 27 -46 1 -3 -14 -14 -20 -32 -20 -18 0 -29 6 -32 20 -3 11 -13 20
-23 20 -10 0 -20 -9 -23 -20 -3 -12 -14 -20 -27 -20 -13 0 -24 8 -27 20 -3 11
-13 20 -23 20 -10 0 -20 -9 -23 -20 -3 -14 -14 -20 -32 -20 -18 0 -29 6 -32
20 -3 11 -11 20 -18 20 -7 0 -15 -9 -18 -20 -4 -15 -14 -20 -36 -20 -24 0 -31
4 -31 20 0 13 -7 20 -19 20 -10 0 -21 -9 -24 -20 -3 -14 -14 -20 -32 -20 -18
0 -29 6 -32 20 -3 11 -14 20 -24 20 -12 0 -19 -7 -19 -20 0 -15 -7 -20 -26
-20 -17 0 -28 6 -31 20 -3 11 -13 20 -23 20 -10 0 -20 -9 -23 -20 -3 -14 -14
-20 -32 -20 -18 0 -29 6 -32 20 -7 26 -39 26 -46 -1 -10 -39 -27 -8 -27 50 0
32 -3 73 -6 90 -6 28 -10 31 -44 31 -34 0 -38 -3 -44 -31z"/>
<path d="M460 1615 l0 -185 125 0 125 0 0 33 c0 44 53 149 92 182 73 61 160
86 235 66 103 -28 196 -131 209 -233 l7 -48 128 0 129 0 0 185 0 185 -525 0
-525 0 0 -185z"/>
<path d="M1540 1761 c0 -5 42 -12 93 -15 126 -10 458 -51 655 -82 90 -14 166
-23 168 -21 12 11 -792 127 -881 127 -19 0 -35 -4 -35 -9z"/>
<path d="M1572 1717 c-8 -9 -12 -82 -14 -212 l-3 -199 -25 -6 c-14 -3 -26 -13
-28 -21 -2 -12 4 -15 28 -11 30 4 30 4 28 -39 -1 -24 -1 -126 0 -227 l2 -184
40 34 40 33 2 198 c1 148 5 200 14 208 7 6 17 8 22 5 5 -3 10 -85 11 -183 1
-97 3 -179 5 -180 1 -1 19 9 39 23 l37 25 0 169 c0 144 2 170 15 170 34 0 31
16 33 -192 l2 -117 35 20 35 21 1 106 c2 199 0 187 32 190 27 3 29 2 27 -35
-1 -21 -2 -82 -1 -136 l1 -98 30 16 c29 15 30 17 32 98 1 45 1 101 0 124 -3
44 -1 47 41 57 l27 6 0 -115 c0 -120 2 -125 44 -109 13 5 16 25 16 119 l0 113
31 6 c49 10 51 8 49 -36 -4 -75 0 -158 8 -158 27 1 33 21 33 113 l0 97 27 0
c15 0 34 5 42 10 11 7 4 10 -27 10 l-43 0 0 40 c0 33 -3 40 -20 40 -17 0 -20
-7 -20 -44 0 -41 -2 -44 -31 -50 -17 -3 -35 -6 -40 -6 -4 0 -9 28 -11 63 -3
54 -6 62 -24 65 -25 4 -34 -19 -34 -89 0 -43 -2 -47 -27 -52 -16 -3 -31 -3
-35 0 -5 2 -8 42 -8 89 0 66 -3 86 -15 90 -33 13 -45 -15 -45 -106 0 -85 -1
-88 -25 -92 -13 -3 -27 -3 -30 0 -3 3 -5 53 -5 111 0 58 -4 112 -9 119 -4 8
-19 12 -32 10 -24 -3 -24 -5 -27 -128 -3 -123 -7 -139 -39 -140 -10 0 -13 35
-13 143 0 157 -7 182 -51 175 l-24 -3 -5 -165 c-5 -161 -6 -165 -27 -168 l-23
-3 -2 198 -3 198 -26 3 c-14 2 -31 -3 -37 -11z"/>
<path d="M353 1686 c-130 -63 -191 -139 -214 -271 -34 -195 39 -318 209 -354
80 -17 112 -15 112 8 0 15 -10 19 -52 25 -169 20 -228 87 -228 256 0 129 57
220 184 294 44 26 66 45 66 57 0 11 -1 19 -3 19 -1 0 -35 -15 -74 -34z"/>
<path d="M890 1674 c-45 -20 -106 -79 -132 -128 -11 -21 -22 -63 -25 -92 l-6
-54 -119 0 -118 0 2 -337 3 -338 140 0 140 0 1 365 c1 398 3 415 57 477 95
108 240 92 320 -37 21 -34 22 -46 27 -420 l5 -385 145 0 145 0 3 338 2 337
-125 0 -125 0 0 33 c0 87 -75 202 -155 238 -49 23 -137 24 -185 3z"/>
<path d="M2483 1633 c9 -2 23 -2 30 0 6 3 -1 5 -18 5 -16 0 -22 -2 -12 -5z"/>
<path d="M2538 1623 c6 -2 18 -2 25 0 6 3 1 5 -13 5 -14 0 -19 -2 -12 -5z"/>
<path d="M2598 1613 c6 -2 18 -2 25 0 6 3 1 5 -13 5 -14 0 -19 -2 -12 -5z"/>
<path d="M2658 1603 c7 -3 16 -2 19 1 4 3 -2 6 -13 5 -11 0 -14 -3 -6 -6z"/>
<path d="M2663 1453 c9 -2 23 -2 30 0 6 3 -1 5 -18 5 -16 0 -22 -2 -12 -5z"/>
<path d="M2533 1443 c9 -2 25 -2 35 0 9 3 1 5 -18 5 -19 0 -27 -2 -17 -5z"/>
<path d="M2408 1433 c12 -2 32 -2 45 0 12 2 2 4 -23 4 -25 0 -35 -2 -22 -4z"/>
<path d="M2680 1211 c0 -6 5 -13 10 -16 6 -3 10 -33 10 -65 0 -32 -4 -62 -10
-65 -22 -13 -8 -25 30 -25 38 0 52 12 30 25 -5 3 -10 35 -10 71 0 36 4 64 10
64 6 0 10 5 10 10 0 6 -18 10 -40 10 -22 0 -40 -4 -40 -9z"/>
<path d="M2967 1188 c4 -21 3 -29 -5 -25 -33 21 -63 -43 -43 -94 8 -23 15 -27
56 -27 44 -1 47 0 41 21 -3 12 -6 52 -6 90 0 65 -1 67 -25 67 -22 0 -24 -3
-18 -32z m3 -83 c0 -19 -4 -35 -10 -35 -5 0 -10 16 -10 35 0 19 5 35 10 35 6
0 10 -16 10 -35z"/>
<path d="M3052 1203 c2 -10 10 -18 18 -18 22 0 18 29 -3 33 -14 3 -18 -1 -15
-15z"/>
<path d="M990 1175 c-74 -19 -145 -34 -157 -34 -18 -1 -23 -7 -23 -26 0 -14 3
-25 8 -24 4 0 81 19 172 42 129 33 166 46 168 60 4 23 -5 22 -168 -18z"/>
<path d="M2774 1158 c-4 -7 -2 -14 4 -16 15 -5 16 -68 2 -77 -19 -12 -10 -25
19 -25 28 0 29 1 28 46 -1 30 3 48 11 51 8 3 12 -10 12 -46 0 -48 2 -51 25
-51 25 0 33 14 15 25 -5 3 -10 26 -10 51 0 24 -3 44 -7 45 -59 8 -93 7 -99 -3z"/>
<path d="M3045 1105 c0 -63 1 -65 26 -65 25 0 26 2 22 53 -6 69 -9 77 -30 77
-15 0 -18 -9 -18 -65z"/>
<path d="M3129 1154 c-12 -14 -10 -16 16 -12 39 4 43 -18 5 -26 -28 -5 -31 -9
-28 -38 3 -32 5 -33 50 -35 l46 -2 -5 57 c-3 31 -11 60 -17 64 -19 13 -53 9
-67 -8z m46 -84 c-5 -8 -11 -8 -17 -2 -6 6 -7 16 -3 22 5 8 11 8 17 2 6 -6 7
-16 3 -22z"/>
<path d="M3249 1167 c0 -1 -1 -30 -2 -65 -2 -61 -2 -62 25 -62 27 0 27 1 21
51 -5 42 -3 51 8 47 9 -3 15 -22 17 -51 3 -38 7 -47 22 -47 17 0 18 6 13 53
-3 28 -9 56 -14 61 -7 8 -87 19 -90 13z"/>
<path d="M2215 900 l0 -90 33 0 c31 0 45 21 22 35 -5 3 -10 30 -10 60 0 30 5
57 10 60 20 13 9 25 -22 25 l-33 0 0 -90z"/>
<path d="M2624 979 c-8 -14 11 -33 25 -25 16 10 13 36 -3 36 -8 0 -18 -5 -22
-11z"/>
<path d="M3320 969 c-7 -11 -12 -51 -12 -87 -1 -64 0 -67 24 -70 24 -3 24 -3
22 78 -2 62 1 80 11 80 8 0 17 5 20 10 4 6 -6 10 -24 10 -20 0 -34 -7 -41 -21z"/>
<path d="M2552 960 c-18 -17 -20 -28 -16 -72 8 -71 10 -78 32 -78 16 0 18 8
16 81 -1 44 -4 82 -6 85 -3 2 -14 -5 -26 -16z"/>
<path d="M2708 960 c-13 -20 -15 -38 -10 -85 6 -52 10 -60 30 -63 15 -2 22 2
22 12 0 9 -4 16 -10 16 -5 0 -10 16 -10 35 0 19 5 35 10 35 6 0 10 7 10 15 0
8 -4 15 -9 15 -5 0 -11 10 -13 23 l-3 22 -17 -25z"/>
<path d="M2916 955 c-11 -12 -14 -29 -10 -68 8 -70 10 -77 31 -77 16 0 18 8
17 68 -3 91 -3 92 -13 92 -5 0 -16 -7 -25 -15z"/>
<path d="M2305 875 c0 -64 0 -65 27 -65 27 0 27 1 21 50 -4 33 -2 50 5 50 6 0
12 -21 14 -47 3 -41 6 -48 25 -51 21 -3 22 -1 16 50 -3 29 -10 58 -15 64 -4 6
-27 12 -51 12 l-42 1 0 -64z"/>
<path d="M2446 933 c-13 -13 -5 -51 14 -68 11 -10 20 -21 20 -26 0 -4 -9 -5
-20 -2 -14 4 -20 0 -20 -10 0 -11 9 -15 33 -14 27 2 32 6 35 29 2 19 -3 31
-17 40 -27 17 -27 38 -1 31 13 -4 20 0 20 9 0 15 -51 23 -64 11z"/>
<path d="M2615 875 c0 -65 0 -65 29 -65 25 0 28 3 22 23 -3 12 -6 41 -6 65 0
37 -3 42 -22 42 -22 0 -23 -4 -23 -65z"/>
<path d="M2767 933 c-4 -3 -3 -11 2 -17 5 -6 11 -32 13 -56 l3 -45 47 -2 c46
-2 69 9 48 22 -5 3 -10 28 -10 56 0 42 -3 49 -20 49 -17 0 -18 -5 -13 -50 5
-42 3 -50 -11 -50 -13 0 -16 10 -16 50 0 42 -3 50 -18 50 -10 0 -22 -3 -25 -7z"/>
<path d="M2996 924 c-18 -18 -21 -66 -6 -95 12 -22 52 -25 69 -5 15 18 -11 30
-28 13 -8 -8 -11 -5 -11 11 0 17 6 22 25 22 19 0 25 5 25 23 0 44 -43 62 -74
31z m44 -25 c0 -5 -4 -9 -10 -9 -5 0 -10 7 -10 16 0 8 5 12 10 9 6 -3 10 -10
10 -16z"/>
<path d="M3196 924 c-9 -8 -16 -31 -16 -49 0 -58 49 -85 83 -47 49 54 -17 147
-67 96z m44 -49 c0 -37 -13 -47 -24 -19 -8 20 2 54 15 54 5 0 9 -16 9 -35z"/>
<path d="M2200 730 c0 -16 5 -30 10 -30 6 0 10 9 10 20 0 11 5 20 10 20 13 0
13 -127 0 -135 -17 -11 0 -25 29 -25 l28 0 -5 80 c-3 55 -1 80 7 80 6 0 11 -9
11 -20 0 -11 5 -20 10 -20 6 0 10 14 10 30 l0 30 -60 0 -60 0 0 -30z"/>
<path d="M2540 751 c0 -6 3 -12 8 -14 8 -6 7 -116 -2 -124 -16 -16 -4 -33 24
-33 l29 0 -6 50 c-5 42 -3 50 11 50 13 0 16 -10 16 -50 0 -43 3 -50 20 -50 17
0 19 5 14 53 -8 75 -11 80 -39 75 -22 -5 -25 -2 -25 23 0 24 -4 29 -25 29 -14
0 -25 -4 -25 -9z"/>
<path d="M2945 670 l0 -90 29 0 c25 0 28 3 22 23 -3 12 -6 52 -6 90 0 63 -1
67 -22 67 -22 0 -23 -3 -23 -90z"/>
<path d="M2329 686 c-18 -39 -3 -95 27 -102 26 -7 58 12 48 28 -3 5 -14 6 -25
3 -13 -4 -19 -2 -19 9 0 10 9 16 25 16 19 0 25 5 25 23 0 49 -62 66 -81 23z
m51 -17 c0 -5 -4 -9 -10 -9 -5 0 -10 7 -10 16 0 8 5 12 10 9 6 -3 10 -10 10
-16z"/>
<path d="M2445 687 c-19 -28 -19 -57 1 -85 18 -26 46 -29 64 -7 10 12 10 19 2
27 -9 9 -12 9 -12 0 0 -7 -7 -12 -15 -12 -10 0 -15 10 -15 34 0 38 16 57 26
32 9 -24 24 -19 24 7 0 20 -5 24 -30 25 -20 0 -35 -7 -45 -21z"/>
<path d="M2685 645 c0 -64 0 -65 27 -65 27 0 27 1 21 50 -4 33 -2 50 5 50 6 0
12 -21 14 -47 3 -41 6 -48 25 -51 21 -3 22 -1 16 50 -3 29 -10 58 -15 64 -4 6
-27 12 -51 12 l-42 1 0 -64z"/>
<path d="M2836 694 c-34 -34 -9 -114 36 -114 24 0 48 34 48 68 0 34 -22 62
-50 62 -10 0 -26 -7 -34 -16z m48 -30 c7 -19 -1 -54 -14 -54 -12 0 -21 31 -15
51 8 23 21 24 29 3z"/>
<path d="M3032 698 c-17 -17 -15 -84 4 -102 8 -9 24 -16 34 -16 22 0 50 36 50
65 0 50 -57 84 -88 53z m48 -54 c0 -24 -4 -34 -12 -32 -24 8 -22 68 2 68 5 0
10 -16 10 -36z"/>
<path d="M3150 696 c-15 -15 -12 -92 4 -105 7 -6 21 -8 31 -5 13 5 16 2 13
-12 -2 -10 -12 -20 -23 -22 -37 -7 -40 -22 -4 -22 49 0 59 15 59 86 0 35 5 66
10 69 6 3 10 10 10 15 0 12 -88 8 -100 -4z m50 -51 c0 -37 -13 -47 -24 -19 -8
20 2 54 15 54 5 0 9 -16 9 -35z"/>
<path d="M3260 703 c0 -5 9 -32 20 -61 22 -57 26 -92 10 -92 -5 0 -10 -4 -10
-10 0 -5 9 -10 19 -10 15 0 22 14 36 73 10 39 22 77 26 83 11 14 1 24 -24 24
-15 0 -18 -5 -14 -23 7 -27 -7 -57 -16 -34 -3 8 -3 25 0 36 4 17 1 21 -21 21
-14 0 -26 -3 -26 -7z"/>
<path d="M2720 491 c0 -6 5 -13 10 -16 6 -3 10 -33 10 -65 0 -32 -4 -62 -10
-65 -18 -11 -11 -25 13 -25 22 0 22 3 20 78 l-2 77 16 -77 c9 -43 20 -78 23
-78 4 0 13 34 19 75 7 41 15 75 18 75 3 0 3 -34 1 -75 l-5 -75 26 0 26 0 0 90
0 90 -32 0 c-29 0 -33 -3 -39 -37 l-8 -38 -9 38 c-8 34 -12 37 -43 37 -19 0
-34 -4 -34 -9z"/>
<path d="M3225 491 c-3 -5 -1 -12 5 -16 17 -11 12 -38 -6 -31 -26 10 -44 -13
-44 -54 0 -62 7 -70 57 -70 42 0 45 2 39 23 -3 12 -6 52 -6 90 0 60 -2 67 -19
67 -11 0 -22 -4 -26 -9z m13 -115 c-2 -15 -7 -28 -13 -29 -12 -2 -19 38 -10
60 9 25 27 1 23 -31z"/>
<path d="M3314 489 c-8 -14 11 -33 25 -25 16 10 13 36 -3 36 -8 0 -18 -5 -22
-11z"/>
<path d="M2934 435 c-18 -14 -18 -14 9 -15 15 0 27 -4 27 -10 0 -5 -9 -10 -20
-10 -27 0 -44 -34 -30 -60 8 -15 21 -20 55 -20 l44 0 -6 53 c-7 70 -37 94 -79
62z m36 -77 c0 -16 -3 -19 -11 -11 -6 6 -8 16 -5 22 11 17 16 13 16 -11z"/>
<path d="M3080 442 l-35 -3 0 -59 c-1 -58 0 -60 26 -60 25 0 26 1 21 50 -3 33
-1 50 7 50 7 0 11 -20 11 -50 0 -46 2 -50 24 -50 23 0 24 3 20 38 -12 88 -13
89 -74 84z"/>
<path d="M3305 380 c0 -59 0 -60 29 -60 22 0 27 4 22 16 -3 9 -6 36 -6 60 0
39 -3 44 -22 44 -21 0 -23 -4 -23 -60z"/>
</g>
</svg>
